<svg xmlns="http://www.w3.org/2000/svg" viewBox="0 0 167.74 94.23">
    <g id="LIMBO_Image-7" data-name="LIMBO Image">
        <path d="M68.52,44.62a67.9,67.9,0,0,0-13,5.81,17,17,0,0,0-7.11,7.84c-.17.41-.3.68-.85.45a16.31,16.31,0,0,0-12.14-.23,15.63,15.63,0,0,1,1.6-3.09c3.48-5.29,8.36-8.91,13.94-11.7,4.3-2.15,8.88-3.57,13.34-5.3A45.42,45.42,0,0,0,73,34.13c.34-.22.62-.41,1-.11a19.15,19.15,0,0,0,11,3.65,65.93,65.93,0,0,1-5.75,4.69c-3.56,2.64-7.42,4.82-11.06,7.33-.23.44,0,.36.31.31a82.35,82.35,0,0,0,17-9.64,5.26,5.26,0,0,1,2.14-1c4.6-1,8.57-3.38,12.43-6,2.56-1.71,5-3.59,7.39-5.49.26-.21.47-.55,1-.49a2.28,2.28,0,0,1-.63,1.09c-4.39,5.91-9.61,11.06-14.83,16.21-3.29,3.25-6.7,6.39-9.73,9.89a38.6,38.6,0,0,0-2.49,3.2c-3.41,4.87-3.4,9.85-.44,14.91a33.9,33.9,0,0,0,5.71,7,11.22,11.22,0,0,1-4.91.43,25.5,25.5,0,0,1-9-2.86,1.89,1.89,0,0,1-.65-.5A28.46,28.46,0,0,1,66.6,67.6c-1.32-4.56-.06-8.47,3.1-11.88.56-.61,1.14-1.2,1.75-1.85-2.17,0-7.83,5.34-8.9,8.39-1.53,4.36.19,8.19,2.12,12-.25.24-.46.15-.7,0q-4.29-3-8.6-6.07a2.66,2.66,0,0,1-1-1.28c-2.15-5.6-1.07-10.45,3.28-14.6a40.72,40.72,0,0,1,8.13-5.64c.93-.53,1.85-1.08,2.77-1.62a1.77,1.77,0,0,1,.81-.57h.09c0-.12,0-.12-.1,0C69.08,44.51,68.84,44.72,68.52,44.62Z"/>
        <path d="M.5,67.88V66.45C1.07,60.66,4.42,56.29,8,52.08c5.52-6.52,11.75-12.36,17.6-18.57a73.32,73.32,0,0,0,8.82-10.67,8.93,8.93,0,0,0,1.12-2,6.41,6.41,0,0,1,3.17-3.39A26.69,26.69,0,0,1,46.43,14c.81-.19,1.06-.13.9.8a15.72,15.72,0,0,1-3.09,6.78c-3,4-6.76,7.3-10.38,10.73-6.43,6.08-12.95,12.07-18.5,19a31.74,31.74,0,0,0-6,10.38,2,2,0,0,0-.18,1.46c2.37-2.21,4.67-4.4,7-6.53,2.05-1.84,4.15-3.61,6.25-5.38.22-.19.43-.71.82-.39s-.1.62-.26.86a23.31,23.31,0,0,0-3.9,8.64,6,6,0,0,0-.21,2.13c.31,1.68-.48,2.79-1.54,4C14.22,70,11.77,74,9.1,77.88c-1.86,2.69-1.87,2.69-3.95.17A19.09,19.09,0,0,1,.5,67.88Z"/>
        <path d="M23.06,65.33a15.3,15.3,0,0,1,1.88-9.92c2.91-5.51,7.2-9.88,11.84-13.95A118.79,118.79,0,0,1,51.64,30.83a58.25,58.25,0,0,0,5.3-3.68,17.39,17.39,0,0,0,4.49-4.91c.28-.5.51-.55,1-.27,2.7,1.48,5.24,3.2,7.8,4.89.6.39.36.62,0,1A30.67,30.67,0,0,1,63.85,32c-4.18,2.07-8.44,4-12.56,6.13C45,41.46,39.35,45.67,35.21,51.6a12.06,12.06,0,0,0-1.61,2.77,7.11,7.11,0,0,1-3,3.55A37.89,37.89,0,0,0,23.06,65.33Z"/>
        <path d="M143.78,17.58a9,9,0,0,0-1.54-1.82,10.76,10.76,0,0,0-13.14-1.64c-3.95,2.14-7.28,5.14-10.77,7.92a2.17,2.17,0,0,0-.5.66,49.34,49.34,0,0,1-6.1,8.4c-5,5.83-10.57,11.18-15.82,16.8-3.38,3.61-6.77,7.21-9.26,11.53-2,3.56-2.91,7.31-1.72,11.35s3.86,7.46,6.75,10.58c.42.45.78.24,1.17.06A11.21,11.21,0,0,0,97.75,77a25.45,25.45,0,0,0,2.38-5.33,63.19,63.19,0,0,1,4-9.44A69.72,69.72,0,0,1,117,45.88c2.7-2.66,5.45-5.26,8.13-7.93.6-.59,1.55-1.36,1-2.21s-1.66-.3-2.54-.14-1.5.74-2.36.71c0-.1-.08-.2-.13-.3,1.71-1.08,3.39-2.18,5.11-3.24,4.15-2.56,8.69-4.34,13.07-6.45a11.86,11.86,0,0,0,4-2.81A4.56,4.56,0,0,0,143.78,17.58ZM93.83,67.87a13.47,13.47,0,0,1,.9-6.89,1.82,1.82,0,0,1,.46-.69,114,114,0,0,1,9.2-7.95,3,3,0,0,1,1.52-.66C102.15,57.35,98.05,62.45,93.83,67.87Zm36.6-42.25c-.59.53-1.2,1.05-1.84,1.52-5.87,4.3-11.75,8.61-17.29,13.35-.27.24-.53.52-.66.54,4.41-4.54,8.77-9.13,13.24-13.6A12,12,0,0,1,130,24.54c.3-.06.68-.16.87.18S130.68,25.39,130.43,25.62Z"/>
        <path d="M164.9,30.8a15.69,15.69,0,0,0-10.06-3.32c-.64,0-1.32,0-2,.12-1.15.14-2.3.28-3.43.52-11.34,2.4-20.74,8.2-28.75,16.4a25.36,25.36,0,0,0-5.54,7.87c-1.88,4.48.07,7.25,4.92,7a42.7,42.7,0,0,0,7.79-1.23,175.75,175.75,0,0,0,21.34-7,41.23,41.23,0,0,0,11.25-6.25,20,20,0,0,0,6.14-7.22C167.85,34.86,167.3,32.72,164.9,30.8Zm-12,10.71a11.59,11.59,0,0,1-3.07,2.64,31.88,31.88,0,0,1-15.13,5.37,9.4,9.4,0,0,1-3.29-.55c-1.81-.69-2.23-1.91-1.24-3.58a10.45,10.45,0,0,1,2.88-3,26.3,26.3,0,0,1,15.73-5.16,7.39,7.39,0,0,1,3.15.55C153.73,38.58,154.08,40,152.9,41.51Z"/>
    </g>
</svg>
