<?xml version="1.0" encoding="utf-8"?>
<!-- Generator: Adobe Illustrator 25.2.1, SVG Export Plug-In . SVG Version: 6.00 Build 0)  -->
<svg version="1.1" id="Layer_1" xmlns="http://www.w3.org/2000/svg" xmlns:xlink="http://www.w3.org/1999/xlink" x="0px" y="0px"
	 viewBox="0 0 167.7 94.2" style="enable-background:new 0 0 167.7 94.2;" xml:space="preserve">
<style type="text/css">
	.st0{fill:#FFFFFF;}
</style>
<g id="LIMBO_Image-7">
	<path class="st0" d="M68.5,44.6c-4.5,1.5-8.9,3.4-13,5.8c-3.1,1.8-5.6,4.5-7.1,7.8c-0.2,0.4-0.3,0.7-0.8,0.5
		c-3.9-1.6-8.2-1.7-12.1-0.2c0.4-1.1,1-2.1,1.6-3.1c3.5-5.3,8.4-8.9,13.9-11.7c4.3-2.2,8.9-3.6,13.3-5.3c3-1.1,6-2.5,8.7-4.3
		c0.3-0.2,0.6-0.4,1-0.1c3.2,2.3,7,3.6,11,3.7c-1.8,1.7-3.7,3.2-5.8,4.7c-3.6,2.6-7.4,4.8-11.1,7.3c-0.2,0.4,0,0.4,0.3,0.3
		c6-2.5,11.7-5.8,17-9.6c0.6-0.5,1.4-0.8,2.1-1c4.6-1,8.6-3.4,12.4-6c2.6-1.7,5-3.6,7.4-5.5c0.3-0.2,0.5-0.5,1-0.5
		c-0.1,0.4-0.3,0.8-0.6,1.1c-4.4,5.9-9.6,11.1-14.8,16.2c-3.3,3.2-6.7,6.4-9.7,9.9c-0.9,1-1.7,2.1-2.5,3.2
		c-3.4,4.9-3.4,9.8-0.4,14.9c1.6,2.6,3.5,4.9,5.7,7c-1.6,0.5-3.3,0.7-4.9,0.4c-3.2-0.4-6.2-1.4-9-2.9c-0.3-0.1-0.5-0.3-0.7-0.5
		c-2.2-2.7-3.8-5.8-4.9-9.2c-1.3-4.6-0.1-8.5,3.1-11.9c0.6-0.6,1.1-1.2,1.8-1.8c-2.2,0-7.8,5.3-8.9,8.4c-1.5,4.4,0.2,8.2,2.1,12
		c-0.2,0.2-0.5,0.2-0.7,0c-2.9-2-5.7-4-8.6-6.1c-0.5-0.3-0.8-0.8-1-1.3c-2.2-5.6-1.1-10.5,3.3-14.6c2.5-2.2,5.2-4.1,8.1-5.6
		c0.9-0.5,1.8-1.1,2.8-1.6c0.2-0.3,0.5-0.5,0.8-0.6h0.1c0-0.1,0-0.1-0.1,0C69.1,44.5,68.8,44.7,68.5,44.6z"/>
	<path class="st0" d="M0.5,67.9v-1.4C1.1,60.7,4.4,56.3,8,52.1c5.5-6.5,11.8-12.4,17.6-18.6c3.3-3.3,6.2-6.8,8.8-10.7
		c0.5-0.6,0.8-1.3,1.1-2c0.6-1.5,1.7-2.7,3.2-3.4c2.4-1.6,5-2.7,7.7-3.5c0.8-0.2,1.1-0.1,0.9,0.8c-0.5,2.5-1.5,4.8-3.1,6.8
		c-3,4-6.8,7.3-10.4,10.7c-6.4,6.1-13,12.1-18.5,19c-2.6,3-4.7,6.6-6,10.4c-0.2,0.4-0.3,1-0.2,1.5c2.4-2.2,4.7-4.4,7-6.5
		c2-1.8,4.1-3.6,6.2-5.4c0.2-0.2,0.4-0.7,0.8-0.4s-0.1,0.6-0.3,0.9c-1.9,2.6-3.2,5.5-3.9,8.6c-0.2,0.7-0.3,1.4-0.2,2.1
		c0.3,1.7-0.5,2.8-1.5,4C14.2,70,11.8,74,9.1,77.9c-1.9,2.7-1.9,2.7-3.9,0.2C2.6,75.2,1,71.7,0.5,67.9z"/>
	<path class="st0" d="M23.1,65.3c-0.5-3.4,0.1-6.9,1.9-9.9c2.9-5.5,7.2-9.9,11.8-14c4.7-3.9,9.6-7.5,14.9-10.6
		c1.8-1.1,3.6-2.4,5.3-3.7c1.8-1.3,3.3-3,4.5-4.9c0.3-0.5,0.5-0.5,1-0.3c2.7,1.5,5.2,3.2,7.8,4.9c0.6,0.4,0.4,0.6,0,1
		c-1.9,1.6-4.1,3-6.4,4.1c-4.2,2.1-8.4,4-12.6,6.1c-6.3,3.3-11.9,7.5-16.1,13.5c-0.7,0.8-1.2,1.8-1.6,2.8c-0.6,1.5-1.6,2.7-3,3.5
		C27.8,60,25.2,62.5,23.1,65.3z"/>
	<path class="st0" d="M143.8,17.6c-0.4-0.7-0.9-1.3-1.5-1.8c-3.5-3.5-8.9-4.2-13.1-1.6c-3.9,2.1-7.3,5.1-10.8,7.9
		c-0.2,0.2-0.4,0.4-0.5,0.7c-1.7,3-3.8,5.8-6.1,8.4c-5,5.8-10.6,11.2-15.8,16.8c-3.4,3.6-6.8,7.2-9.3,11.5c-2,3.6-2.9,7.3-1.7,11.3
		s3.9,7.5,6.8,10.6c0.4,0.4,0.8,0.2,1.2,0.1c2-0.9,3.7-2.5,4.9-4.4c1-1.7,1.8-3.5,2.4-5.3c1.1-3.2,2.4-6.4,4-9.4
		c3.4-6.1,7.8-11.6,12.9-16.3c2.7-2.7,5.4-5.3,8.1-7.9c0.6-0.6,1.6-1.4,1-2.2s-1.7-0.3-2.5-0.1s-1.5,0.7-2.4,0.7
		c0-0.1-0.1-0.2-0.1-0.3c1.7-1.1,3.4-2.2,5.1-3.2c4.2-2.6,8.7-4.3,13.1-6.5c1.5-0.6,2.9-1.6,4-2.8C144.9,21.9,145.1,19.4,143.8,17.6
		z M93.8,67.9c-0.3-2.3,0-4.7,0.9-6.9c0.1-0.3,0.3-0.5,0.5-0.7c2.9-2.8,6-5.5,9.2-8c0.4-0.4,1-0.6,1.5-0.7
		C102.2,57.3,98.1,62.5,93.8,67.9z M130.4,25.6c-0.6,0.5-1.2,1-1.8,1.5c-5.9,4.3-11.8,8.6-17.3,13.4c-0.3,0.2-0.5,0.5-0.7,0.5
		c4.4-4.5,8.8-9.1,13.2-13.6c1.7-1.5,3.8-2.5,6.1-2.9c0.3-0.1,0.7-0.2,0.9,0.2S130.7,25.4,130.4,25.6z"/>
	<path class="st0" d="M164.9,30.8c-2.9-2.2-6.4-3.4-10.1-3.3c-0.6,0-1.3,0-2,0.1c-1.1,0.1-2.3,0.3-3.4,0.5
		c-11.3,2.4-20.7,8.2-28.8,16.4c-2.3,2.2-4.2,4.9-5.5,7.9c-1.9,4.5,0.1,7.2,4.9,7c2.6-0.2,5.2-0.6,7.8-1.2c7.3-1.9,14.4-4.2,21.3-7
		c4.1-1.5,7.9-3.6,11.2-6.2c2.6-1.9,4.7-4.4,6.1-7.2C167.9,34.9,167.3,32.7,164.9,30.8z M152.9,41.5c-0.9,1.1-1.9,1.9-3.1,2.6
		c-4.5,3.1-9.7,4.9-15.1,5.4c-1.1,0-2.2-0.2-3.3-0.5c-1.8-0.7-2.2-1.9-1.2-3.6c0.7-1.2,1.7-2.2,2.9-3c4.6-3.4,10.1-5.2,15.7-5.2
		c1.1,0,2.2,0.1,3.1,0.5C153.7,38.6,154.1,40,152.9,41.5z"/>
</g>
</svg>
